<?xml version="1.0" standalone="no"?>
<!DOCTYPE svg PUBLIC "-//W3C//DTD SVG 20010904//EN"
 "http://www.w3.org/TR/2001/REC-SVG-20010904/DTD/svg10.dtd">
<svg version="1.0" xmlns="http://www.w3.org/2000/svg"
 width="512.000000pt" height="512.000000pt" viewBox="0 0 512.000000 512.000000"
 preserveAspectRatio="xMidYMid meet">
<metadata>
Created by potrace 1.14, written by Peter Selinger 2001-2017
</metadata>
<g transform="translate(0.000000,512.000000) scale(0.100000,-0.100000)"
fill="#000000" stroke="none">
<path d="M2286 4902 c-3 -3 -25 -7 -48 -9 -57 -4 -113 -11 -113 -13 0 -2 -22
-6 -72 -14 -85 -13 -108 -18 -118 -26 -5 -4 -18 -6 -27 -5 -10 2 -18 -1 -18
-6 0 -6 -6 -9 -12 -8 -13 2 -60 -8 -88 -18 -8 -4 -17 -7 -20 -8 -32 -8 -155
-51 -187 -66 -24 -10 -49 -19 -57 -19 -8 0 -18 -4 -21 -10 -3 -5 -15 -15 -27
-21 -16 -8 -19 -8 -13 1 9 14 -46 -19 -57 -35 -4 -5 -8 -6 -8 -2 0 9 -103 -44
-108 -55 -2 -5 -10 -8 -18 -8 -8 0 -14 -5 -14 -12 0 -6 -3 -8 -7 -5 -3 4 -21
-5 -40 -19 -18 -14 -33 -21 -33 -17 0 4 -4 3 -8 -3 -4 -6 -36 -30 -72 -54 -65
-44 -78 -54 -105 -78 -8 -7 -15 -11 -15 -7 0 3 -11 -5 -24 -19 -13 -15 -26
-26 -29 -26 -14 0 -271 -249 -259 -251 4 0 -4 -5 -17 -10 -15 -6 -21 -15 -17
-24 3 -8 0 -15 -7 -16 -13 0 -127 -143 -127 -159 0 -5 -4 -10 -10 -10 -5 0
-10 -7 -10 -15 0 -8 -5 -15 -11 -15 -5 0 -7 -4 -4 -10 3 -5 2 -10 -4 -10 -6 0
-18 -15 -27 -32 -9 -18 -20 -35 -23 -38 -9 -7 -51 -81 -64 -112 -6 -16 -15
-28 -20 -28 -4 0 -6 -4 -2 -9 3 -5 -2 -17 -11 -25 -8 -9 -12 -16 -8 -16 4 0 0
-8 -9 -17 -8 -10 -17 -27 -19 -38 -1 -11 -6 -23 -11 -26 -4 -3 -9 -15 -11 -26
-3 -11 -9 -29 -14 -39 -10 -18 -22 -48 -27 -66 -2 -5 -3 -9 -5 -10 -1 -2 -3
-10 -5 -18 -2 -8 -11 -35 -20 -60 -9 -25 -17 -53 -18 -62 -1 -10 -6 -18 -11
-18 -5 0 -7 -3 -4 -6 4 -3 2 -20 -3 -37 -6 -18 -12 -43 -15 -57 -2 -14 -7 -36
-10 -50 -12 -49 -15 -66 -20 -105 -3 -22 -8 -51 -11 -65 -9 -40 -14 -512 -6
-507 5 3 7 -24 7 -59 -1 -35 1 -64 5 -64 5 0 10 -35 14 -97 0 -13 4 -23 7 -23
3 0 6 -8 7 -17 3 -31 11 -67 21 -94 6 -15 8 -30 5 -33 -3 -3 -1 -11 4 -18 5
-7 16 -35 23 -63 7 -27 17 -55 21 -60 4 -6 10 -22 13 -37 2 -14 11 -39 20 -56
8 -16 12 -32 9 -36 -4 -3 -1 -6 6 -6 7 0 9 -4 6 -10 -3 -5 -1 -10 6 -10 7 0 9
-3 6 -7 -4 -3 0 -17 8 -30 9 -13 13 -23 10 -23 -4 0 3 -14 15 -30 12 -17 18
-30 15 -30 -3 0 2 -12 13 -28 10 -15 25 -42 33 -59 8 -18 17 -33 21 -33 5 0 8
-7 8 -15 0 -8 5 -15 11 -15 5 0 7 -5 4 -10 -3 -6 1 -13 9 -16 9 -3 14 -10 11
-14 -3 -5 3 -13 12 -19 10 -6 14 -11 10 -11 -5 0 6 -18 23 -40 17 -22 28 -40
24 -40 -4 0 3 -8 14 -19 12 -10 22 -23 22 -30 0 -6 9 -16 20 -23 11 -7 20 -18
20 -23 0 -6 20 -32 45 -58 25 -27 45 -52 45 -58 0 -5 7 -9 17 -9 9 0 14 -3 10
-6 -3 -3 12 -23 33 -44 21 -21 35 -41 32 -45 -4 -4 -2 -6 3 -5 19 4 36 0 31
-8 -2 -4 12 -21 31 -37 20 -17 50 -43 66 -58 17 -15 47 -40 66 -55 19 -15 43
-35 53 -44 10 -10 18 -15 18 -10 0 4 5 -1 11 -10 5 -10 17 -18 24 -18 8 0 15
-4 15 -10 0 -5 7 -10 15 -10 8 0 15 -4 15 -10 0 -5 7 -10 15 -10 8 0 15 -4 15
-10 0 -5 7 -10 15 -10 8 0 15 -4 15 -10 0 -5 7 -10 15 -10 8 0 15 -4 15 -9 0
-5 8 -11 18 -14 23 -8 75 -40 84 -52 5 -7 8 -7 8 0 0 6 4 5 8 -2 4 -6 14 -13
22 -15 8 -2 21 -9 28 -16 8 -7 18 -10 23 -7 5 4 9 2 9 -3 0 -8 74 -44 105 -51
6 -1 17 -9 26 -17 9 -8 18 -11 22 -8 3 3 18 -1 34 -9 30 -16 94 -42 105 -42 3
0 10 -3 14 -8 4 -4 18 -7 31 -7 13 0 23 -4 23 -8 0 -7 19 -12 63 -15 9 -1 17
-4 17 -8 0 -6 64 -22 72 -19 2 1 16 -3 31 -9 15 -6 40 -13 55 -16 15 -3 38 -7
52 -10 51 -10 106 -18 133 -19 15 -1 27 -4 27 -7 0 -3 15 -5 33 -4 17 1 42 -2
53 -6 13 -5 27 -3 34 4 10 9 11 9 6 0 -5 -9 50 -12 236 -11 134 0 247 3 252 6
5 3 30 6 55 8 25 1 46 3 46 4 0 1 16 3 36 5 20 1 46 6 58 10 12 3 36 8 54 10
18 2 43 7 57 10 14 4 34 8 45 10 11 2 20 4 20 5 0 3 41 12 63 14 12 0 22 4 22
7 0 7 69 24 83 21 4 -1 7 3 7 8 0 5 3 9 8 8 13 -3 97 26 104 37 4 5 8 6 8 2 0
-4 10 -2 23 5 12 7 28 11 35 10 6 -2 12 2 12 8 0 5 3 9 8 8 4 -1 21 5 37 12
17 7 33 14 38 15 4 2 9 4 12 5 3 1 10 3 15 4 6 0 15 8 20 16 5 8 10 11 10 6 0
-4 11 -1 25 8 14 9 25 14 25 11 0 -4 7 1 16 9 8 9 22 16 30 16 8 0 14 3 14 8
0 4 23 17 50 30 28 13 48 28 44 33 -3 5 -2 9 3 7 12 -3 83 34 83 44 0 4 7 8
15 8 8 0 15 5 15 10 0 6 7 10 15 10 8 0 15 5 15 12 0 6 3 9 6 5 3 -3 14 2 23
11 29 27 61 52 61 47 0 -2 13 8 30 23 16 15 45 41 64 57 65 55 196 184 196
193 0 5 11 15 25 22 14 7 23 15 21 18 -3 2 5 14 17 27 12 12 33 37 47 55 14
18 33 41 43 51 9 11 14 19 10 19 -3 0 4 8 15 19 12 10 19 20 17 23 -3 3 4 13
15 23 11 10 20 24 20 31 0 7 6 17 13 21 6 4 23 28 36 53 14 25 31 51 38 58 7
8 11 17 8 22 -3 5 -1 10 3 12 13 5 91 165 85 172 -4 3 -1 6 5 6 7 0 12 6 12
13 1 6 9 30 20 52 11 22 19 48 20 58 0 9 4 17 10 17 5 0 9 3 8 8 -3 12 25 112
33 112 6 0 18 55 22 105 1 11 5 22 9 25 3 3 9 25 13 50 4 24 9 48 11 52 3 4 7
27 9 50 3 24 9 72 14 108 10 79 8 469 -3 560 -5 36 -9 75 -9 88 -1 12 -4 22
-7 22 -3 0 -6 8 -7 18 -1 16 -5 36 -19 100 -9 40 -10 45 -18 64 -4 9 -5 22 -1
28 3 5 1 10 -5 10 -6 0 -11 8 -10 18 3 25 -11 62 -22 62 -6 0 -8 7 -5 15 4 8
2 17 -4 20 -5 4 -9 12 -7 18 1 7 -6 29 -15 51 -9 21 -17 40 -17 42 0 2 -12 29
-27 61 -15 32 -28 64 -29 72 -2 8 -7 17 -12 20 -9 6 -23 36 -28 60 -1 8 -7 17
-12 20 -4 3 -19 26 -33 51 -13 25 -28 48 -34 52 -5 4 -6 8 -1 8 5 0 -1 8 -12
19 -12 10 -19 21 -15 25 3 3 1 6 -5 6 -7 0 -12 7 -12 15 0 8 -4 15 -10 15 -5
0 -10 7 -10 15 0 8 -4 15 -10 15 -5 0 -10 7 -10 15 0 9 -7 18 -15 21 -8 4 -15
12 -15 20 0 8 -5 14 -10 14 -6 0 -14 8 -17 18 -4 9 -14 26 -24 37 -10 11 -29
33 -43 49 -14 16 -26 33 -26 37 0 5 -7 9 -15 9 -8 0 -15 4 -15 9 0 13 -62 76
-72 73 -8 -2 -12 14 -8 33 1 6 -2 7 -6 3 -4 -4 -29 15 -56 42 -27 28 -53 50
-57 50 -5 0 -11 7 -15 15 -3 8 -10 15 -17 15 -6 0 -23 11 -37 25 -56 51 -87
75 -99 75 -7 0 -13 3 -13 8 0 4 -18 18 -40 32 -22 14 -40 28 -40 33 0 4 -4 6
-8 3 -5 -3 -19 5 -33 17 -14 12 -31 23 -38 25 -7 1 -20 9 -28 17 -8 8 -25 18
-39 21 -13 3 -24 10 -24 15 0 5 -7 9 -15 9 -8 0 -15 5 -15 12 0 6 -3 9 -6 5
-3 -3 -29 7 -58 22 -28 16 -55 29 -61 31 -10 3 -99 41 -140 60 -18 8 -58 21
-77 26 -5 1 -11 3 -15 4 -5 1 -11 2 -15 1 -5 0 -8 4 -8 11 0 6 -3 9 -6 5 -3
-3 -18 -1 -33 5 -14 5 -37 12 -51 15 -13 2 -29 8 -36 14 -6 5 -14 6 -17 2 -4
-3 -13 -1 -20 5 -8 7 -17 9 -20 5 -4 -3 -13 0 -22 7 -8 7 -15 10 -15 7 0 -3
-17 -1 -37 4 -35 9 -101 20 -130 22 -7 0 -13 3 -13 7 0 4 -12 6 -27 5 -16 -1
-34 2 -40 8 -9 6 -13 6 -13 -2 0 -7 -5 -9 -12 -4 -7 4 -31 10 -53 12 -65 6
-554 9 -559 3z m448 -180 c3 -5 -1 -9 -9 -9 -8 0 -12 4 -9 9 3 4 7 8 9 8 2 0
6 -4 9 -8z m51 -2 c-3 -5 -14 -10 -23 -9 -14 0 -13 2 3 9 27 11 27 11 20 0z
m-532 -17 c-7 -2 -19 -2 -25 0 -7 3 -2 5 12 5 14 0 19 -2 13 -5z m-83 -12 c0
-5 -9 -7 -20 -4 -11 3 -20 7 -20 9 0 2 9 4 20 4 11 0 20 -4 20 -9z m810 3 c0
-8 -19 -13 -24 -6 -3 5 1 9 9 9 8 0 15 -2 15 -3z m54 -12 c3 -5 -1 -9 -9 -9
-8 0 -12 4 -9 9 3 4 7 8 9 8 2 0 6 -4 9 -8z m57 -20 c-7 -2 -18 1 -23 6 -8 8
-4 9 13 5 13 -4 18 -8 10 -11z m56 -8 c-3 -3 -12 -4 -19 -1 -8 3 -5 6 6 6 11
1 17 -2 13 -5z m-1217 -8 c0 -3 -4 -8 -10 -11 -5 -3 -10 -1 -10 4 0 6 5 11 10
11 6 0 10 -2 10 -4z m-320 -110 c0 -2 -8 -10 -17 -17 -16 -13 -17 -12 -4 4 13
16 21 21 21 13z m1965 -36 c3 -6 -1 -7 -9 -4 -18 7 -21 14 -7 14 6 0 13 -4 16
-10z m-2109 -37 c-2 -3 -6 -3 -9 -1 -3 2 -15 -6 -28 -17 l-24 -20 18 21 c9 11
24 21 32 21 8 0 13 -2 11 -4z m2239 -23 c8 -12 -23 -6 -37 8 -8 8 -5 9 11 5
12 -3 24 -9 26 -13z m-2435 -90 c0 -5 -5 -10 -11 -10 -5 0 -7 5 -4 10 3 6 8
10 11 10 2 0 4 -4 4 -10z m2591 -7 c13 -17 13 -17 -6 -3 -11 8 -22 16 -24 17
-2 2 0 3 6 3 6 0 17 -8 24 -17z m-2651 -37 c0 -11 -19 -15 -25 -6 -3 5 1 10 9
10 9 0 16 -2 16 -4z m2765 -36 c3 -6 -1 -7 -9 -4 -18 7 -21 14 -7 14 6 0 13
-4 16 -10z m-2825 -4 c0 -3 -4 -8 -10 -11 -5 -3 -10 -1 -10 4 0 6 5 11 10 11
6 0 10 -2 10 -4z m2914 -75 c-2 -3 -12 3 -22 13 -16 17 -16 18 5 5 12 -7 20
-15 17 -18z m-3015 -3 c-2 -2 -17 -14 -34 -28 l-30 -25 24 28 c14 15 29 27 34
27 6 0 8 -1 6 -2z m3046 -18 c3 -6 -1 -7 -9 -4 -18 7 -21 14 -7 14 6 0 13 -4
16 -10z m35 -30 c0 -5 -2 -10 -4 -10 -3 0 -8 5 -11 10 -3 6 -1 10 4 10 6 0 11
-4 11 -10z m-3196 -55 c-29 -22 -36 -17 -11 8 12 12 24 18 26 14 1 -5 -5 -15
-15 -22z m3251 9 c9 -9 14 -18 11 -21 -2 -3 -14 5 -25 16 -12 12 -17 21 -12
21 5 0 17 -7 26 -16z m38 -38 c4 -10 1 -13 -8 -9 -8 3 -12 9 -9 14 7 12 11 11
17 -5z m-3336 -16 c-14 -11 -28 -20 -32 -20 -10 0 38 39 49 40 5 0 -3 -9 -17
-20z m3383 -30 c13 -11 20 -20 16 -20 -4 0 -19 9 -33 20 -14 11 -21 20 -16 20
6 0 20 -9 33 -20z m-3430 -20 c-11 -11 -23 -20 -27 -20 -3 0 2 9 12 20 10 11
22 20 27 20 4 0 -1 -9 -12 -20z m-77 -84 c-10 -13 -20 -22 -22 -20 -4 4 29 44
36 44 2 0 -4 -11 -14 -24z m3605 -7 c11 0 12 -2 4 -6 -15 -6 -42 14 -42 31 0
6 5 3 11 -6 5 -10 18 -18 27 -19z m-3648 -49 c-11 -11 -23 -20 -27 -20 -3 0 2
9 12 20 10 11 22 20 27 20 4 0 -1 -9 -12 -20z m3700 -24 c0 -6 -7 -1 -15 10
-8 10 -15 23 -15 28 0 6 7 1 15 -10 8 -10 15 -23 15 -28z m-3735 -26 c-3 -5
-12 -10 -18 -10 -7 0 -6 4 3 10 19 12 23 12 15 0z m3760 -8 c-3 -3 -11 0 -18
7 -9 10 -8 11 6 5 10 -3 15 -9 12 -12z m-3804 -49 c-12 -20 -14 -14 -5 12 4 9
9 14 11 11 3 -2 0 -13 -6 -23z m-26 -32 c3 -5 2 -12 -3 -15 -5 -3 -9 1 -9 9 0
17 3 19 12 6z m3909 -37 c3 -8 2 -12 -4 -9 -6 3 -10 10 -10 16 0 14 7 11 14
-7z m23 -39 c0 -8 -4 -12 -9 -9 -5 3 -6 10 -3 15 9 13 12 11 12 -6z m142 -279
c-3 -3 -11 5 -18 17 -13 21 -12 21 5 5 10 -10 16 -20 13 -22z m-4259 4 c0 -5
-5 -10 -11 -10 -5 0 -7 5 -4 10 3 6 8 10 11 10 2 0 4 -4 4 -10z m4287 -72 c-3
-8 -6 -5 -6 6 -1 11 2 17 5 13 3 -3 4 -12 1 -19z m-4370 -150 c-3 -8 -6 -5 -6
6 -1 11 2 17 5 13 3 -3 4 -12 1 -19z m4423 2 c0 -5 -2 -10 -4 -10 -3 0 -8 5
-11 10 -3 6 -1 10 4 10 6 0 11 -4 11 -10z m20 -44 c0 -3 -4 -8 -10 -11 -5 -3
-10 -1 -10 4 0 6 5 11 10 11 6 0 10 -2 10 -4z m-3 -58 c-3 -8 -6 -5 -6 6 -1
11 2 17 5 13 3 -3 4 -12 1 -19z m-4484 -113 c-3 -9 -8 -14 -10 -11 -3 3 -2 9
2 15 9 16 15 13 8 -4z m4515 -10 c-3 -3 -9 2 -12 12 -6 14 -5 15 5 6 7 -7 10
-15 7 -18z m12 -50 c0 -8 -2 -15 -4 -15 -2 0 -6 7 -10 15 -3 8 -1 15 4 15 6 0
10 -7 10 -15z m-4550 -101 c0 -8 -5 -12 -10 -9 -6 4 -8 11 -5 16 9 14 15 11
15 -7z m4570 12 c0 -3 -4 -8 -10 -11 -5 -3 -10 -1 -10 4 0 6 5 11 10 11 6 0
10 -2 10 -4z m0 -30 c0 -3 -4 -8 -10 -11 -5 -3 -10 -1 -10 4 0 6 5 11 10 11 6
0 10 -2 10 -4z m-7 -376 c-7 -27 -13 -25 -11 4 1 14 5 23 9 20 4 -2 5 -13 2
-24z m-4563 -5 c0 -8 -4 -15 -10 -15 -5 0 -7 7 -4 15 4 8 8 15 10 15 2 0 4 -7
4 -15z m7 -102 c-3 -10 -5 -4 -5 12 0 17 2 24 5 18 2 -7 2 -21 0 -30z m4540
-5 c-3 -8 -6 -5 -6 6 -1 11 2 17 5 13 3 -3 4 -12 1 -19z m-4522 -47 c3 -5 2
-12 -3 -15 -5 -3 -9 1 -9 9 0 17 3 19 12 6z m4502 -76 c0 -8 -4 -12 -9 -9 -5
3 -6 10 -3 15 9 13 12 11 12 -6z m-12 -44 c3 -5 2 -12 -3 -15 -5 -3 -9 1 -9 9
0 17 3 19 12 6z m-41 -137 c3 -8 2 -12 -4 -9 -6 3 -10 10 -10 16 0 14 7 11 14
-7z m-4367 -86 c-3 -8 -6 -5 -6 6 -1 11 2 17 5 13 3 -3 4 -12 1 -19z m4334
-11 c-10 -9 -11 -8 -5 6 3 10 9 15 12 12 3 -3 0 -11 -7 -18z m-4311 -42 c0 -5
-5 -3 -10 5 -5 8 -10 20 -10 25 0 6 5 3 10 -5 5 -8 10 -19 10 -25z m4301 2
c-10 -9 -11 -8 -5 6 3 10 9 15 12 12 3 -3 0 -11 -7 -18z m-4290 -50 c-10 -9
-11 -8 -5 6 3 10 9 15 12 12 3 -3 0 -11 -7 -18z m4274 14 c3 -5 2 -12 -3 -15
-5 -3 -9 1 -9 9 0 17 3 19 12 6z m-45 -115 c0 -2 -7 -7 -16 -10 -8 -3 -12 -2
-9 4 6 10 25 14 25 6z m-77 -131 c-3 -9 -8 -14 -10 -11 -3 3 -2 9 2 15 9 16
15 13 8 -4z m-4022 -12 c13 -16 12 -17 -3 -4 -10 7 -18 15 -18 17 0 8 8 3 21
-13z m42 -67 c4 -10 1 -13 -8 -9 -8 3 -12 9 -9 14 7 12 11 11 17 -5z m3942 4
c3 -5 -1 -10 -10 -10 -9 0 -13 5 -10 10 3 6 8 10 10 10 2 0 7 -4 10 -10z m-34
-43 c-10 -9 -11 -8 -5 6 3 10 9 15 12 12 3 -3 0 -11 -7 -18z m-3876 -7 c10
-11 16 -20 13 -20 -3 0 -13 9 -23 20 -10 11 -16 20 -13 20 3 0 13 -9 23 -20z
m3855 -24 c0 -3 -4 -8 -10 -11 -5 -3 -10 -1 -10 4 0 6 5 11 10 11 6 0 10 -2
10 -4z m-3792 -71 c-3 -3 -9 2 -12 12 -6 14 -5 15 5 6 7 -7 10 -15 7 -18z m19
-12 c-4 -3 -1 -13 6 -22 11 -14 10 -14 -5 -2 -16 12 -16 31 -1 31 4 0 3 -3 0
-7z m48 -69 c9 -15 12 -23 6 -20 -11 7 -35 46 -28 46 3 0 12 -12 22 -26z
m3613 6 c-7 -10 -14 -17 -17 -15 -4 4 18 35 25 35 2 0 -1 -9 -8 -20z m-3568
-55 c14 -19 14 -19 -2 -6 -10 7 -18 18 -18 24 0 6 1 8 3 6 1 -2 9 -13 17 -24z
m3549 22 c-2 -1 -13 -9 -24 -17 -19 -14 -19 -14 -6 3 7 9 18 17 24 17 6 0 8
-1 6 -3z m-3403 -185 c-5 -5 -95 88 -114 117 -9 14 13 -5 50 -44 37 -38 66
-71 64 -73z m3342 126 c-3 -13 -41 -49 -46 -43 -3 2 40 54 46 55 1 0 1 -5 0
-12z m-92 -103 c-34 -32 -42 -32 -19 -1 10 13 21 22 26 19 4 -2 7 1 7 8 0 7 3
9 7 6 3 -4 -6 -18 -21 -32z m-66 -48 c0 -2 -10 -12 -22 -23 l-23 -19 19 23
c18 21 26 27 26 19z m-3080 -63 c0 -3 -7 -1 -15 6 -8 7 -15 17 -15 22 0 5 7 3
15 -6 8 -8 15 -18 15 -22z m3034 17 c3 -5 -1 -11 -9 -14 -9 -4 -12 -1 -8 9 6
16 10 17 17 5z m-39 -31 c-3 -5 -12 -10 -18 -10 -7 0 -6 4 3 10 19 12 23 12
15 0z m-2842 -103 c-3 -4 -6 -7 -7 -5 -1 2 -8 12 -16 22 -14 18 -14 18 7 6 12
-8 19 -18 16 -23z m2717 3 c0 -5 -2 -10 -4 -10 -3 0 -8 5 -11 10 -3 6 -1 10 4
10 6 0 11 -4 11 -10z m-2645 -40 c3 -6 -1 -7 -9 -4 -18 7 -21 14 -7 14 6 0 13
-4 16 -10z m2575 -4 c0 -3 -4 -8 -10 -11 -5 -3 -10 -1 -10 4 0 6 5 11 10 11 6
0 10 -2 10 -4z m-60 -30 c0 -3 -4 -8 -10 -11 -5 -3 -10 -1 -10 4 0 6 5 11 10
11 6 0 10 -2 10 -4z m-2410 -26 c8 -5 11 -10 5 -10 -5 0 -17 5 -25 10 -8 5
-10 10 -5 10 6 0 17 -5 25 -10z m2270 -60 c0 -5 -4 -10 -10 -10 -5 0 -10 5
-10 10 0 6 5 10 10 10 6 0 10 -4 10 -10z m-2139 -17 c13 -16 12 -17 -3 -4 -17
13 -22 21 -14 21 2 0 10 -8 17 -17z m2076 -10 c-14 -14 -19 -15 -29 -4 -11 10
-10 11 3 6 10 -4 20 -2 24 4 3 6 9 11 13 11 3 0 -1 -8 -11 -17z m-2030 -9 c-3
-3 -12 -4 -19 -1 -8 3 -5 6 6 6 11 1 17 -2 13 -5z m1598 -144 c-3 -5 -12 -10
-18 -10 -7 0 -6 4 3 10 19 12 23 12 15 0z m-1060 -30 c3 -6 -1 -7 -9 -4 -18 7
-21 14 -7 14 6 0 13 -4 16 -10z m940 0 c-3 -5 -12 -10 -18 -10 -7 0 -6 4 3 10
19 12 23 12 15 0z m-865 -15 c0 -2 -9 -3 -19 -2 -11 0 -18 5 -15 9 4 6 34 0
34 -7z m800 5 c0 -5 -5 -10 -11 -10 -5 0 -7 5 -4 10 3 6 8 10 11 10 2 0 4 -4
4 -10z m-80 -10 c0 -5 -8 -10 -17 -10 -15 0 -16 2 -3 10 19 12 20 12 20 0z
m-653 -6 c-3 -3 -12 -4 -19 -1 -8 3 -5 6 6 6 11 1 17 -2 13 -5z m117 -13 c3
-4 -6 -6 -19 -3 -14 2 -25 6 -25 8 0 8 39 4 44 -5z m406 3 c0 -8 -19 -13 -24
-6 -3 5 1 9 9 9 8 0 15 -2 15 -3z m30 2 c0 -3 -4 -8 -10 -11 -5 -3 -10 -1 -10
4 0 6 5 11 10 11 6 0 10 -2 10 -4z"/>
</g>
</svg>
